<svg width="40" height="40" viewBox="0 0 40 40" fill="none" xmlns="http://www.w3.org/2000/svg">
<g clip-path="url(#clip0_208_4)">
<mask id="mask0_208_4" style="mask-type:luminance" maskUnits="userSpaceOnUse" x="0" y="0" width="40" height="40">
<path d="M40 0H0V40H40V0Z" fill="white"/>
</mask>
<g mask="url(#mask0_208_4)">
<mask id="mask1_208_4" style="mask-type:luminance" maskUnits="userSpaceOnUse" x="0" y="0" width="40" height="40">
<path d="M40 0H0V40H40V0Z" fill="white"/>
</mask>
<g mask="url(#mask1_208_4)">
<path d="M24.5 7L14.5 8.5L10 10L6 14.5L3 20.5L5 26.5L10.5 32.5L18.5 34.5L26.5 33L31 28L34 23.5L36 17L34 13.5L24.5 7Z" fill="black"/>
<path d="M21.8533 1.03534C11.3982 0.381228 1.70307 8.8846 0.183284 20.1614C-1.3365 31.4382 6.76028 39.4967 18.3421 38.2932C29.9239 37.0896 39.5405 28.5339 40.0121 19.1933C40.4838 9.85268 32.2822 1.74177 21.8533 1.03534ZM33.671 19.3503L30.0811 22.8301C29.8884 23.0246 29.6516 23.1698 29.3907 23.2534C29.1298 23.3369 28.8526 23.3564 28.5826 23.3102C28.3126 23.264 28.0577 23.1534 27.8396 22.9878C27.6215 22.8223 27.4466 22.6066 27.3298 22.3592L21.7747 10.5068C20.5956 10.8731 20.4121 11.8412 21.0672 13.2802L26.6747 25.4204C27.043 26.1566 27.1886 26.9839 27.094 27.8013C27.094 28.4554 26.6485 29.188 25.9672 29.3189L19.7309 30.7841H19.4688C18.7351 30.9672 17.9752 31.098 17.2154 31.2288C16.9022 31.3315 16.5674 31.3493 16.2451 31.2803C15.9228 31.2114 15.6246 31.0582 15.3811 30.8364L6.34103 21.9667C6.02896 21.6488 5.85416 21.2214 5.85416 20.7762C5.85416 20.3311 6.02896 19.9037 6.34103 19.5858L10.6122 15.164C10.806 14.9928 11.0368 14.8686 11.2867 14.8013C11.5366 14.734 11.7987 14.7253 12.0524 14.776C12.3062 14.8267 12.5448 14.9353 12.7495 15.0934C12.9542 15.2515 13.1195 15.4548 13.2325 15.6873L19.626 29.816C20.91 29.2927 21.1458 28.22 20.3859 26.5716C20.3859 26.5716 14.4902 13.6203 14.464 13.4895C14.1308 12.8636 13.9853 12.1551 14.0448 11.4487C14.0958 11.0805 14.2827 10.7446 14.5688 10.5068C14.932 10.3514 15.3329 10.3059 15.7218 10.376L19.2068 9.9835L21.6175 9.69569C22.3535 9.56555 23.0978 9.48687 23.8448 9.46022C24.4213 9.61383 24.9403 9.93209 25.3383 10.376C25.8624 10.8469 26.4389 11.2655 26.9891 11.7103L31.4437 15.0332L33.6186 16.7339C33.8142 16.8896 33.9731 17.0864 34.084 17.3104C34.1948 17.5344 34.2549 17.78 34.2599 18.0298C34.2649 18.2796 34.2147 18.5274 34.1129 18.7556C34.0111 18.9839 33.8602 19.1869 33.671 19.3503Z" fill="white"/>
</g>
</g>
</g>
<defs>
<clipPath id="clip0_208_4">
<rect width="40" height="40" fill="white"/>
</clipPath>
</defs>
</svg>
